<svg width="70" height="72" viewBox="0 0 70 72" fill="none" xmlns="http://www.w3.org/2000/svg">
<g clip-path="url(#clip0_4_86)">
<path d="M35 72C54.33 72 70 55.8823 70 36C70 16.1178 54.33 0 35 0C15.67 0 0 16.1178 0 36C0 55.8823 15.67 72 35 72Z" fill="#6723F7"/>
<path d="M24.25 34.5998V41.6999C24.25 44.2999 24.25 44.2999 26.6388 45.957L33.2083 49.857C34.1945 50.4427 35.8055 50.4427 36.7917 49.857L43.3612 45.957C45.75 44.2999 45.75 44.2999 45.75 41.6999V34.5998C45.75 31.9999 45.75 31.9999 43.3612 30.3427L36.7917 26.4427C35.8055 25.857 34.1945 25.857 33.2083 26.4427L26.6388 30.3427C24.25 31.9999 24.25 31.9999 24.25 34.5998Z" stroke="white" stroke-width="2" stroke-linecap="round" stroke-linejoin="round"/>
<path d="M42.6389 29.7571V26.0001C42.6389 23.1429 41.25 21.7144 38.4722 21.7144H31.5279C28.75 21.7144 27.3612 23.1429 27.3612 26.0001V29.6572M35.875 34.5571L36.6667 35.8286C36.7917 36.0286 37.0695 36.2285 37.2779 36.2858L38.6945 36.6571C39.5695 36.8858 39.8055 37.6572 39.2362 38.3714L38.3055 39.5285C38.1667 39.7144 38.0555 40.0428 38.0695 40.2715L38.1529 41.7715C38.2084 42.7 37.5695 43.1714 36.7362 42.8285L35.375 42.2714C35.1272 42.1857 34.859 42.1857 34.6112 42.2714L33.25 42.8285C32.4167 43.1714 31.7779 42.6857 31.8334 41.7715L31.9167 40.2715C31.9305 40.0428 31.8195 39.7 31.6805 39.5285L30.75 38.3714C30.1805 37.6572 30.4167 36.8858 31.2917 36.6571L32.7084 36.2858C32.9305 36.2285 33.2084 36.0142 33.3195 35.8286L34.1112 34.5571C34.6112 33.7857 35.3889 33.7857 35.875 34.5571Z" stroke="white" stroke-width="2" stroke-linecap="round" stroke-linejoin="round"/>
</g>
<defs>
<clipPath id="clip0_4_86">
<rect width="70" height="72" fill="white"/>
</clipPath>
</defs>
</svg>
